<?xml version="1.0" encoding="UTF-8"?>
<svg id="Camada_1" xmlns="http://www.w3.org/2000/svg" viewBox="0 0 146.87 181.54">
  <defs>
    <style>
      .cls-1 {
        fill: none;
      }

      .cls-2 {
        fill: #0b0a0a;
      }
    </style>
  </defs>
  <g>
    <g>
      <path class="cls-2" d="M26.33,153.82l6.03-23.12h5.73l6,23.12h-3.35l-1.39-5.45h-8.26l-1.39,5.45h-3.38ZM31.9,145.07h6.63l-3.07-12.16h-.48l-3.07,12.16Z"/>
      <path class="cls-2" d="M46.94,153.82v-23.12h8.86c1.31,0,2.46.25,3.45.74.99.5,1.77,1.21,2.32,2.13.55.92.83,2.03.83,3.3v.36c0,1.45-.32,2.62-.95,3.48-.63.87-1.4,1.48-2.31,1.83v.53c.76.04,1.38.33,1.84.84.46.52.69,1.26.69,2.23v7.66h-3.29v-7.17c0-.6-.14-1.07-.42-1.42-.28-.35-.73-.53-1.36-.53h-6.42v9.12h-3.26ZM50.2,141.46h5.24c1.16,0,2.07-.33,2.71-.97s.96-1.54.96-2.66v-.26c0-1.12-.32-2.01-.95-2.66-.63-.65-1.54-.97-2.73-.97h-5.24v7.53Z"/>
      <path class="cls-2" d="M73.83,154.28c-2.57,0-4.61-.8-6.12-2.39s-2.26-3.9-2.26-6.92v-5.42c0-3.02.75-5.32,2.26-6.92,1.51-1.6,3.55-2.39,6.12-2.39s4.49.77,5.86,2.31,2.06,3.64,2.06,6.31v.2h-3.23v-.3c0-1.56-.39-2.84-1.16-3.83s-1.95-1.49-3.54-1.49-2.86.53-3.77,1.6c-.9,1.07-1.36,2.55-1.36,4.44v5.55c0,1.87.45,3.35,1.36,4.43.9,1.08,2.16,1.62,3.77,1.62s2.77-.5,3.54-1.5,1.16-2.27,1.16-3.82v-.56h3.23v.46c0,2.66-.69,4.77-2.06,6.31-1.38,1.54-3.33,2.31-5.86,2.31Z"/>
      <path class="cls-2" d="M83.59,153.82l6.03-23.12h5.73l6,23.12h-3.35l-1.39-5.45h-8.26l-1.39,5.45h-3.38ZM89.17,145.07h6.63l-3.07-12.16h-.48l-3.07,12.16Z"/>
      <path class="cls-2" d="M103.42,153.82v-3.17h2.83v-16.78h-2.83v-3.17h10.7c1.27,0,2.37.24,3.32.71.94.47,1.68,1.15,2.21,2.01.53.87.8,1.9.8,3.09v.33c0,1.06-.18,1.93-.54,2.61-.36.68-.8,1.21-1.31,1.59-.51.38-1,.64-1.46.79v.53c.46.13.96.39,1.49.78.53.39.98.92,1.36,1.6.37.68.56,1.58.56,2.68v.33c0,1.28-.27,2.37-.81,3.27-.54.9-1.29,1.6-2.24,2.08-.95.48-2.05.73-3.3.73h-10.76ZM109.54,140.54h4.25c1.02,0,1.85-.28,2.47-.84.62-.56.93-1.33.93-2.3v-.33c0-.97-.31-1.73-.92-2.3-.61-.56-1.44-.84-2.49-.84h-4.25v6.61ZM109.54,150.58h4.25c1.09,0,1.94-.29,2.56-.86.62-.57.93-1.37.93-2.38v-.3c0-1.01-.31-1.81-.92-2.38s-1.47-.86-2.58-.86h-4.25v6.77Z"/>
    </g>
    <g>
      <rect class="cls-2" x="62.37" y="62.22" width="22.15" height="22.14"/>
      <path class="cls-2" d="M26.56,27.25v93.76h93.76V27.25H26.56ZM99.5,62.22h-9.43v22.14h9.43v5.55h-9.43v9.44h-5.55v-9.44h-22.15v9.44h-5.55v-9.44h-9.44v-5.55h9.44v-22.14h-9.44v-5.55h9.44v-9.44h5.55v9.44h22.15v-9.44h5.55v9.44h9.43v5.55Z"/>
    </g>
  </g>
  <rect class="cls-1" x="-567.29" y="-20.32" width="742.21" height="633.06"/>
</svg>